<svg width="135.5" height="26" viewBox="0 0 271 52" fill="none" xmlns="http://www.w3.org/2000/svg">
<path d="M138 18.66C139.07 16.59 140.52 15 142.35 13.88C144.18 12.76 146.23 12.21 148.49 12.21C150.47 12.21 152.19 12.61 153.68 13.4C155.16 14.2 156.35 15.2 157.24 16.41V12.63H163.98V39.11H157.24V35.24C156.38 36.48 155.19 37.51 153.68 38.32C152.17 39.13 150.42 39.54 148.45 39.54C146.22 39.54 144.19 38.97 142.36 37.82C140.53 36.67 139.08 35.06 138.01 32.97C136.94 30.88 136.41 28.48 136.41 25.78C136.4 23.1 136.93 20.73 138 18.66ZM156.28 21.69C155.64 20.53 154.78 19.63 153.7 19.01C152.62 18.39 151.45 18.08 150.21 18.08C148.97 18.08 147.82 18.38 146.77 18.99C145.72 19.6 144.87 20.48 144.21 21.64C143.56 22.8 143.23 24.18 143.23 25.77C143.23 27.36 143.56 28.76 144.21 29.95C144.86 31.14 145.72 32.06 146.79 32.7C147.86 33.34 149 33.66 150.21 33.66C151.45 33.66 152.62 33.35 153.7 32.73C154.78 32.11 155.64 31.22 156.28 30.05C156.92 28.89 157.24 27.49 157.24 25.87C157.24 24.25 156.92 22.86 156.28 21.69Z" fill="#A3A3A3"/>
<path d="M195.86 12.63L179.46 51.64H172.34L178.08 38.45L167.47 12.64H174.97L181.81 31.14L188.74 12.64H195.86V12.63Z" fill="#A3A3A3"/>
<path d="M199.32 18.66C200.39 16.59 201.84 15 203.67 13.88C205.5 12.76 207.55 12.21 209.81 12.21C211.79 12.21 213.51 12.61 215 13.4C216.48 14.2 217.67 15.2 218.56 16.41V12.63H225.3V39.11H218.56V35.24C217.7 36.48 216.51 37.51 215 38.32C213.49 39.13 211.74 39.54 209.77 39.54C207.54 39.54 205.51 38.97 203.68 37.82C201.85 36.67 200.4 35.06 199.33 32.97C198.26 30.88 197.73 28.48 197.73 25.78C197.72 23.1 198.26 20.73 199.32 18.66ZM217.61 21.69C216.97 20.53 216.11 19.63 215.03 19.01C213.95 18.39 212.78 18.08 211.54 18.08C210.3 18.08 209.15 18.38 208.1 18.99C207.05 19.6 206.2 20.48 205.54 21.64C204.89 22.8 204.56 24.18 204.56 25.77C204.56 27.36 204.89 28.76 205.54 29.95C206.19 31.14 207.05 32.06 208.12 32.7C209.19 33.34 210.33 33.66 211.54 33.66C212.78 33.66 213.95 33.35 215.03 32.73C216.11 32.11 216.97 31.22 217.61 30.05C218.25 28.89 218.57 27.49 218.57 25.87C218.56 24.25 218.24 22.86 217.61 21.69Z" fill="#A3A3A3"/>
<path d="M238.54 3.74001V39.11H231.85V3.74001H238.54Z" fill="#A3A3A3"/>
<path d="M245.02 18.66C246.09 16.59 247.54 15 249.37 13.88C251.2 12.76 253.25 12.21 255.51 12.21C257.49 12.21 259.21 12.61 260.7 13.4C262.18 14.2 263.37 15.2 264.26 16.41V12.63H271V39.11H264.26V35.24C263.4 36.48 262.21 37.51 260.7 38.32C259.19 39.13 257.44 39.54 255.47 39.54C253.24 39.54 251.21 38.97 249.38 37.82C247.55 36.67 246.1 35.06 245.03 32.97C243.96 30.88 243.43 28.48 243.43 25.78C243.42 23.1 243.95 20.73 245.02 18.66ZM263.3 21.69C262.66 20.53 261.8 19.63 260.72 19.01C259.64 18.39 258.47 18.08 257.23 18.08C255.99 18.08 254.84 18.38 253.79 18.99C252.74 19.6 251.89 20.48 251.23 21.64C250.58 22.8 250.25 24.18 250.25 25.77C250.25 27.36 250.58 28.76 251.23 29.95C251.88 31.14 252.74 32.06 253.81 32.7C254.88 33.34 256.02 33.66 257.23 33.66C258.47 33.66 259.64 33.35 260.72 32.73C261.8 32.11 262.66 31.22 263.3 30.05C263.94 28.89 264.26 27.49 264.26 25.87C264.26 24.25 263.94 22.86 263.3 21.69Z" fill="#A3A3A3"/>
<path d="M12.18 43.46C12.18 46.39 11.45 48.5 9.99999 49.79C8.54999 51.08 6.46999 51.73 3.75999 51.73H0.799988V46.04H2.70999C3.72999 46.04 4.44999 45.84 4.85999 45.44C5.26999 45.04 5.47999 44.4 5.47999 43.5V12.62H12.17V43.46H12.18ZM5.88999 7.36C5.10999 6.61 4.71999 5.68 4.71999 4.56C4.71999 3.44 5.10999 2.50999 5.88999 1.75999C6.66999 1.00999 7.66999 0.639999 8.87999 0.639999C10.06 0.639999 11.03 1.00999 11.8 1.75999C12.56 2.50999 12.95 3.44 12.95 4.56C12.95 5.68 12.57 6.61 11.8 7.36C11.04 8.11 10.06 8.48 8.87999 8.48C7.65999 8.48 6.66999 8.11 5.88999 7.36Z" fill="black"/>
<path d="M23.65 37.85C21.61 36.72 20.01 35.12 18.85 33.05C17.69 30.98 17.1 28.59 17.1 25.88C17.1 23.17 17.7 20.78 18.89 18.71C20.08 16.64 21.72 15.04 23.79 13.91C25.86 12.78 28.17 12.21 30.72 12.21C33.27 12.21 35.58 12.78 37.65 13.91C39.72 15.04 41.36 16.64 42.55 18.71C43.74 20.78 44.34 23.17 44.34 25.88C44.34 28.59 43.73 30.98 42.5 33.05C41.27 35.12 39.61 36.72 37.53 37.85C35.44 38.98 33.11 39.55 30.53 39.55C27.98 39.55 25.69 38.98 23.65 37.85ZM33.95 32.83C35.02 32.24 35.87 31.36 36.51 30.18C37.15 29 37.47 27.57 37.47 25.88C37.47 23.36 36.81 21.43 35.49 20.07C34.17 18.72 32.55 18.04 30.64 18.04C28.73 18.04 27.13 18.72 25.84 20.07C24.55 21.43 23.9 23.36 23.9 25.88C23.9 28.4 24.53 30.33 25.79 31.69C27.05 33.05 28.63 33.72 30.55 33.72C31.74 33.71 32.88 33.42 33.95 32.83Z" fill="black"/>
<path d="M53.57 38.37C51.85 37.59 50.49 36.53 49.48 35.19C48.48 33.85 47.93 32.37 47.83 30.74H54.57C54.7 31.76 55.2 32.6 56.08 33.27C56.96 33.94 58.05 34.27 59.35 34.27C60.63 34.27 61.62 34.02 62.34 33.51C63.06 33 63.41 32.35 63.41 31.55C63.41 30.69 62.97 30.04 62.1 29.61C61.22 29.18 59.83 28.71 57.92 28.2C55.94 27.72 54.33 27.23 53.07 26.72C51.81 26.21 50.73 25.43 49.82 24.38C48.91 23.33 48.46 21.91 48.46 20.13C48.46 18.66 48.88 17.33 49.73 16.11C50.57 14.9 51.79 13.94 53.36 13.24C54.94 12.54 56.79 12.19 58.93 12.19C62.09 12.19 64.6 12.98 66.48 14.56C68.36 16.14 69.4 18.26 69.59 20.94H63.18C63.09 19.89 62.65 19.05 61.87 18.43C61.09 17.81 60.05 17.5 58.74 17.5C57.53 17.5 56.6 17.72 55.94 18.17C55.29 18.62 54.96 19.24 54.96 20.03C54.96 20.92 55.4 21.6 56.3 22.06C57.19 22.52 58.58 22.99 60.46 23.47C62.37 23.95 63.95 24.44 65.19 24.95C66.43 25.46 67.51 26.25 68.42 27.32C69.33 28.39 69.8 29.8 69.83 31.55C69.83 33.08 69.41 34.45 68.56 35.66C67.71 36.87 66.5 37.82 64.93 38.5C63.35 39.18 61.51 39.53 59.41 39.53C57.23 39.55 55.29 39.15 53.57 38.37Z" fill="black"/>
<path d="M100.32 12.63V39.11H93.58V35.76C92.72 36.91 91.6 37.81 90.21 38.46C88.82 39.11 87.32 39.44 85.69 39.44C83.62 39.44 81.79 39 80.19 38.13C78.59 37.26 77.35 35.96 76.44 34.26C75.53 32.56 75.08 30.52 75.08 28.17V12.64H81.77V27.22C81.77 29.32 82.3 30.94 83.35 32.07C84.4 33.2 85.84 33.77 87.65 33.77C89.5 33.77 90.95 33.2 92 32.07C93.05 30.94 93.58 29.32 93.58 27.22V12.64H100.32V12.63Z" fill="black"/>
<path d="M131.34 27.88H111.98C112.14 29.79 112.81 31.29 113.99 32.37C115.17 33.45 116.62 34 118.34 34C120.82 34 122.59 32.93 123.64 30.8H130.86C130.1 33.35 128.63 35.45 126.46 37.09C124.29 38.73 121.63 39.55 118.48 39.55C115.93 39.55 113.64 38.98 111.62 37.85C109.6 36.72 108.02 35.12 106.89 33.05C105.76 30.98 105.19 28.59 105.19 25.88C105.19 23.14 105.75 20.73 106.86 18.66C107.98 16.59 109.54 15 111.54 13.88C113.55 12.76 115.86 12.21 118.47 12.21C120.99 12.21 123.24 12.75 125.23 13.83C127.22 14.91 128.77 16.45 129.87 18.44C130.97 20.43 131.52 22.72 131.52 25.3C131.53 26.26 131.47 27.12 131.34 27.88ZM124.6 23.39C124.57 21.67 123.95 20.29 122.74 19.26C121.53 18.22 120.05 17.71 118.29 17.71C116.63 17.71 115.24 18.21 114.11 19.22C112.98 20.22 112.28 21.62 112.03 23.4H124.6V23.39Z" fill="black"/>
<path d="M128.31 3.88H108.6V8.85001H128.31V3.88Z" fill="#66D88C"/>
</svg>
