<?xml version="1.0" encoding="utf-8"?>
<!-- Generator: Adobe Illustrator 26.0.0, SVG Export Plug-In . SVG Version: 6.00 Build 0)  -->
<svg version="1.1" xmlns="http://www.w3.org/2000/svg" xmlns:xlink="http://www.w3.org/1999/xlink" x="0px" y="0px"
	 viewBox="0 0 360 360" style="enable-background:new 0 0 360 360;" xml:space="preserve">
<style type="text/css">
	.st0{fill:#A3A3A3;}
	.st1{fill:#66D88C;}
</style>
<g id="GUIAS">
</g>
<g id="Capa_2">
	<path class="st0" d="M182,169.66c1.07-2.07,2.52-3.66,4.35-4.78c1.83-1.12,3.88-1.67,6.14-1.67c1.98,0,3.7,0.4,5.19,1.19
		c1.48,0.8,2.67,1.8,3.56,3.01v-3.78h6.74v26.48h-6.74v-3.87c-0.86,1.24-2.05,2.27-3.56,3.08c-1.51,0.81-3.26,1.22-5.23,1.22
		c-2.23,0-4.26-0.57-6.09-1.72c-1.83-1.15-3.28-2.76-4.35-4.85c-1.07-2.09-1.6-4.49-1.6-7.19C180.4,174.1,180.93,171.73,182,169.66z
		 M200.28,172.69c-0.64-1.16-1.5-2.06-2.58-2.68c-1.08-0.62-2.25-0.93-3.49-0.93c-1.24,0-2.39,0.3-3.44,0.91
		c-1.05,0.61-1.9,1.49-2.56,2.65c-0.65,1.16-0.98,2.54-0.98,4.13c0,1.59,0.33,2.99,0.98,4.18c0.65,1.19,1.51,2.11,2.58,2.75
		c1.07,0.64,2.21,0.96,3.42,0.96c1.24,0,2.41-0.31,3.49-0.93c1.08-0.62,1.94-1.51,2.58-2.68c0.64-1.16,0.96-2.56,0.96-4.18
		C201.24,175.25,200.92,173.86,200.28,172.69z"/>
	<path class="st0" d="M239.86,163.63l-16.4,39.01h-7.12l5.74-13.19l-10.61-25.81h7.5l6.84,18.5l6.93-18.5H239.86z"/>
	<path class="st0" d="M243.32,169.66c1.07-2.07,2.52-3.66,4.35-4.78c1.83-1.12,3.88-1.67,6.14-1.67c1.98,0,3.7,0.4,5.19,1.19
		c1.48,0.8,2.67,1.8,3.56,3.01v-3.78h6.74v26.48h-6.74v-3.87c-0.86,1.24-2.05,2.27-3.56,3.08c-1.51,0.81-3.26,1.22-5.23,1.22
		c-2.23,0-4.26-0.57-6.09-1.72c-1.83-1.15-3.28-2.76-4.35-4.85c-1.07-2.09-1.6-4.49-1.6-7.19
		C241.72,174.1,242.26,171.73,243.32,169.66z M261.61,172.69c-0.64-1.16-1.5-2.06-2.58-2.68c-1.08-0.62-2.25-0.93-3.49-0.93
		c-1.24,0-2.39,0.3-3.44,0.91c-1.05,0.61-1.9,1.49-2.56,2.65c-0.65,1.16-0.98,2.54-0.98,4.13c0,1.59,0.33,2.99,0.98,4.18
		c0.65,1.19,1.51,2.11,2.58,2.75c1.07,0.64,2.21,0.96,3.42,0.96c1.24,0,2.41-0.31,3.49-0.93c1.08-0.62,1.94-1.51,2.58-2.68
		c0.64-1.16,0.96-2.56,0.96-4.18C262.56,175.25,262.24,173.86,261.61,172.69z"/>
	<path class="st0" d="M282.54,154.74v35.37h-6.69v-35.37H282.54z"/>
	<path class="st0" d="M289.02,169.66c1.07-2.07,2.52-3.66,4.35-4.78c1.83-1.12,3.88-1.67,6.14-1.67c1.98,0,3.7,0.4,5.19,1.19
		c1.48,0.8,2.67,1.8,3.56,3.01v-3.78H315v26.48h-6.74v-3.87c-0.86,1.24-2.05,2.27-3.56,3.08c-1.51,0.81-3.26,1.22-5.23,1.22
		c-2.23,0-4.26-0.57-6.09-1.72c-1.83-1.15-3.28-2.76-4.35-4.85c-1.07-2.09-1.6-4.49-1.6-7.19
		C287.42,174.1,287.95,171.73,289.02,169.66z M307.3,172.69c-0.64-1.16-1.5-2.06-2.58-2.68c-1.08-0.62-2.25-0.93-3.49-0.93
		c-1.24,0-2.39,0.3-3.44,0.91c-1.05,0.61-1.9,1.49-2.56,2.65c-0.65,1.16-0.98,2.54-0.98,4.13c0,1.59,0.33,2.99,0.98,4.18
		c0.65,1.19,1.51,2.11,2.58,2.75c1.07,0.64,2.21,0.96,3.42,0.96c1.24,0,2.41-0.31,3.49-0.93c1.08-0.62,1.94-1.51,2.58-2.68
		c0.64-1.16,0.96-2.56,0.96-4.18C308.26,175.25,307.94,173.86,307.3,172.69z"/>
	<path d="M56.18,194.46c0,2.93-0.73,5.04-2.18,6.33c-1.45,1.29-3.53,1.94-6.24,1.94H44.8v-5.69h1.91c1.02,0,1.74-0.2,2.15-0.6
		c0.41-0.4,0.62-1.04,0.62-1.94v-30.88h6.69V194.46z M49.89,158.36c-0.78-0.75-1.17-1.68-1.17-2.8c0-1.12,0.39-2.05,1.17-2.8
		c0.78-0.75,1.78-1.12,2.99-1.12c1.18,0,2.15,0.37,2.92,1.12c0.76,0.75,1.15,1.68,1.15,2.8c0,1.12-0.38,2.05-1.15,2.8
		c-0.76,0.75-1.74,1.12-2.92,1.12C51.66,159.48,50.67,159.11,49.89,158.36z"/>
	<path d="M67.65,188.85c-2.04-1.13-3.64-2.73-4.8-4.8c-1.16-2.07-1.75-4.46-1.75-7.17s0.6-5.1,1.79-7.17
		c1.19-2.07,2.83-3.67,4.9-4.8c2.07-1.13,4.38-1.7,6.93-1.7c2.55,0,4.86,0.57,6.93,1.7c2.07,1.13,3.71,2.73,4.9,4.8
		c1.19,2.07,1.79,4.46,1.79,7.17s-0.61,5.1-1.84,7.17c-1.23,2.07-2.89,3.67-4.97,4.8c-2.09,1.13-4.42,1.7-7,1.7
		C71.98,190.55,69.69,189.98,67.65,188.85z M77.95,183.83c1.07-0.59,1.92-1.47,2.56-2.65c0.64-1.18,0.96-2.61,0.96-4.3
		c0-2.52-0.66-4.45-1.98-5.81c-1.32-1.35-2.94-2.03-4.85-2.03c-1.91,0-3.51,0.68-4.8,2.03c-1.29,1.36-1.94,3.29-1.94,5.81
		s0.63,4.45,1.89,5.81c1.26,1.36,2.84,2.03,4.76,2.03C75.74,184.71,76.88,184.42,77.95,183.83z"/>
	<path d="M97.57,189.37c-1.72-0.78-3.08-1.84-4.09-3.18c-1-1.34-1.55-2.82-1.65-4.45h6.74c0.13,1.02,0.63,1.86,1.51,2.53
		c0.88,0.67,1.97,1,3.27,1c1.28,0,2.27-0.25,2.99-0.76c0.72-0.51,1.07-1.16,1.07-1.96c0-0.86-0.44-1.51-1.31-1.94
		c-0.88-0.43-2.27-0.9-4.18-1.41c-1.98-0.48-3.59-0.97-4.85-1.48c-1.26-0.51-2.34-1.29-3.25-2.34c-0.91-1.05-1.36-2.47-1.36-4.25
		c0-1.47,0.42-2.8,1.27-4.02c0.84-1.21,2.06-2.17,3.63-2.87c1.58-0.7,3.43-1.05,5.57-1.05c3.16,0,5.67,0.79,7.55,2.37
		c1.88,1.58,2.92,3.7,3.11,6.38h-6.41c-0.09-1.05-0.53-1.89-1.31-2.51c-0.78-0.62-1.82-0.93-3.13-0.93c-1.21,0-2.14,0.22-2.8,0.67
		c-0.65,0.45-0.98,1.07-0.98,1.86c0,0.89,0.44,1.57,1.34,2.03c0.89,0.46,2.28,0.93,4.16,1.41c1.91,0.48,3.49,0.97,4.73,1.48
		c1.24,0.51,2.32,1.3,3.23,2.37c0.91,1.07,1.38,2.48,1.41,4.23c0,1.53-0.42,2.9-1.27,4.11c-0.85,1.21-2.06,2.16-3.63,2.84
		c-1.58,0.68-3.42,1.03-5.52,1.03C101.23,190.55,99.29,190.15,97.57,189.37z"/>
	<path d="M144.32,163.63v26.48h-6.74v-3.35c-0.86,1.15-1.98,2.05-3.37,2.7s-2.89,0.98-4.52,0.98c-2.07,0-3.9-0.44-5.5-1.31
		s-2.84-2.17-3.75-3.87c-0.91-1.7-1.36-3.74-1.36-6.09v-15.53h6.69v14.58c0,2.1,0.53,3.72,1.58,4.85c1.05,1.13,2.49,1.7,4.3,1.7
		c1.85,0,3.3-0.57,4.35-1.7c1.05-1.13,1.58-2.75,1.58-4.85v-14.58H144.32z"/>
	<path d="M175.34,178.88h-19.36c0.16,1.91,0.83,3.41,2.01,4.49c1.18,1.08,2.63,1.63,4.35,1.63c2.48,0,4.25-1.07,5.3-3.2h7.22
		c-0.76,2.55-2.23,4.65-4.4,6.29c-2.17,1.64-4.83,2.46-7.98,2.46c-2.55,0-4.84-0.57-6.86-1.7c-2.02-1.13-3.6-2.73-4.73-4.8
		c-1.13-2.07-1.7-4.46-1.7-7.17c0-2.74,0.56-5.15,1.67-7.22c1.12-2.07,2.68-3.66,4.68-4.78c2.01-1.12,4.32-1.67,6.93-1.67
		c2.52,0,4.77,0.54,6.76,1.62c1.99,1.08,3.54,2.62,4.64,4.61c1.1,1.99,1.65,4.28,1.65,6.86
		C175.53,177.26,175.47,178.12,175.34,178.88z M168.6,174.39c-0.03-1.72-0.65-3.1-1.86-4.13c-1.21-1.04-2.69-1.55-4.45-1.55
		c-1.66,0-3.05,0.5-4.18,1.51c-1.13,1-1.83,2.4-2.08,4.18H168.6z"/>
	<g>
		<g>
			<rect x="152.6" y="154.88" class="st1" width="19.71" height="4.97"/>
		</g>
	</g>
</g>
</svg>
